HIERARCHY
ROOT Hips
{
	OFFSET 53.768200 -14.844514 85.518097
	CHANNELS 6 Xposition Yposition Zposition Xrotation Yrotation Zrotation
	JOINT spine
	{
		OFFSET 0.000000 -0.367607 6.392601
		CHANNELS 3 Xrotation Yrotation Zrotation
		JOINT spine1
		{
			OFFSET 0.000000 -0.000001 9.176109
			CHANNELS 3 Xrotation Yrotation Zrotation
			JOINT spine2
			{
				OFFSET 0.000000 -0.000002 8.792381
				CHANNELS 3 Xrotation Yrotation Zrotation
				JOINT Neck
				{
					OFFSET 0.000000 -1.076242 22.573692
					CHANNELS 3 Xrotation Yrotation Zrotation
					JOINT Head
					{
						OFFSET 0.000000 -0.000002 6.820114
						CHANNELS 3 Xrotation Yrotation Zrotation
						End Site
						{
							OFFSET 0.000000 5.444267 16.508499
						}
					}
				}
				JOINT RightShoulder
				{
					OFFSET -3.702209 0.515507 9.495087
					CHANNELS 3 Xrotation Yrotation Zrotation
					JOINT RightArm
					{
						OFFSET 0.000000 -0.000003 12.453697
						CHANNELS 3 Xrotation Yrotation Zrotation
						JOINT RightArmRoll
						{
							OFFSET 0.000000 -0.000001 6.286865
							CHANNELS 3 Xrotation Yrotation Zrotation
							JOINT RightForeArm
							{
								OFFSET 0.000000 -0.000003 18.311401
								CHANNELS 3 Xrotation Yrotation Zrotation
								JOINT RightForeArmRoll
								{
									OFFSET 0.000000 -0.000001 7.054825
									CHANNELS 3 Xrotation Yrotation Zrotation
									JOINT RightHand
									{
										OFFSET 0.000000 -0.000002 14.157501
										CHANNELS 3 Xrotation Yrotation Zrotation
										End Site
										{
											OFFSET 0.000000 0.000000 0.100006
										}
									}
								}
							}
						}
					}
				}
				JOINT LeftShoulder
				{
					OFFSET 3.702209 0.515507 9.495087
					CHANNELS 3 Xrotation Yrotation Zrotation
					JOINT LeftArm
					{
						OFFSET 0.000000 -0.000003 12.453697
						CHANNELS 3 Xrotation Yrotation Zrotation
						JOINT LeftArmRoll
						{
							OFFSET 0.000000 -0.000001 6.286865
							CHANNELS 3 Xrotation Yrotation Zrotation
							JOINT LeftForeArm
							{
								OFFSET 0.000000 -0.000003 18.311401
								CHANNELS 3 Xrotation Yrotation Zrotation
								JOINT LeftForeArmRoll
								{
									OFFSET 0.000000 -0.000001 7.054825
									CHANNELS 3 Xrotation Yrotation Zrotation
									JOINT LeftHand
									{
										OFFSET 0.000000 -0.000002 14.157501
										CHANNELS 3 Xrotation Yrotation Zrotation
										End Site
										{
											OFFSET 0.000000 0.000000 0.100006
										}
									}
								}
							}
						}
					}
				}
			}
		}
	}
	JOINT RightUpLeg
	{
		OFFSET -5.666161 0.871611 -1.039032
		CHANNELS 3 Xrotation Yrotation Zrotation
		JOINT RightUpLegRoll
		{
			OFFSET 0.000000 -0.000003 16.600502
			CHANNELS 3 Xrotation Yrotation Zrotation
			JOINT RightLeg
			{
				OFFSET 0.000000 0.000003 -20.557198
				CHANNELS 3 Xrotation Yrotation Zrotation
				JOINT RightLegRoll
				{
					OFFSET 0.000000 -0.000003 20.624397
					CHANNELS 3 Xrotation Yrotation Zrotation
					JOINT RightFoot
					{
						OFFSET 0.000000 -0.000003 17.166405
						CHANNELS 3 Xrotation Yrotation Zrotation
						JOINT RightToeBase
						{
							OFFSET 0.000000 -0.000003 14.350204
							CHANNELS 3 Xrotation Yrotation Zrotation
							End Site
							{
								OFFSET 0.006081 0.801060 6.949707
							}
						}
					}
				}
			}
		}
	}
	JOINT LeftUpLeg
	{
		OFFSET 5.666161 0.871611 -1.039032
		CHANNELS 3 Xrotation Yrotation Zrotation
		JOINT LeftUpLegRoll
		{
			OFFSET 0.000000 -0.000003 16.600601
			CHANNELS 3 Xrotation Yrotation Zrotation
			JOINT LeftLeg
			{
				OFFSET 0.000000 -0.000004 20.557098
				CHANNELS 3 Xrotation Yrotation Zrotation
				JOINT LeftLegRoll
				{
					OFFSET 0.000000 -0.000003 20.815094
					CHANNELS 3 Xrotation Yrotation Zrotation
					JOINT LeftFoot
					{
						OFFSET 0.000000 -0.000003 16.975693
						CHANNELS 3 Xrotation Yrotation Zrotation
						JOINT LeftToeBase
						{
							OFFSET 0.000000 -0.000003 14.350204
							CHANNELS 3 Xrotation Yrotation Zrotation
							End Site
							{
								OFFSET -0.027260 0.801059 6.949707
							}
						}
					}
				}
			}
		}
	}
}
MOTION
Frames: 6
Frame Time: 0.041667
53.454102 -11.750114 85.350494 1.323473 1.095448 -10.860907 -1.557113 0.477840 -0.754209 0.895143 0.968715 -1.500114 2.540070 0.950674 -1.511591 23.323214 -2.857759 -6.999943 3.562126 4.143258 -7.537354 -6.715322 -57.638232 -7.795043 -48.889808 -117.327514 -88.725797 -0.000001 0.000000 -0.000001 128.186163 9.638765 -32.558368 -0.000003 0.000006 -2.999989 -5.000210 -7.998750 0.000169 3.754472 52.335775 -5.424080 -53.145531 115.448693 72.673554 -0.000004 -0.000008 0.000002 122.776175 -6.029285 19.144663 -0.000002 0.000008 2.999988 -5.000250 7.998811 -0.000154 -7.818830 -173.771979 0.720127 -179.999991 0.000006 -0.937998 172.496837 -3.599997 -0.736828 0.000001 0.000001 0.012628 67.335078 6.577742 3.020632 25.459378 -7.355613 0.003609 -1.722741 172.044542 -0.713945 -0.000005 -0.000004 -1.010051 -10.263096 0.709440 0.607184 -0.000005 -0.000003 -0.356068 73.944188 -6.658212 -2.444098 25.446578 7.347794 0.015450 
53.477501 -11.707614 85.350090 1.328089 1.063654 -10.566659 -1.561572 0.474868 -0.735782 0.886019 0.962513 -1.463264 2.530954 0.944913 -1.474675 23.379473 -2.568053 -7.157017 3.523485 3.683004 -7.642031 -6.338497 -57.455285 -7.331362 -49.241494 -117.533554 -88.240211 -0.000001 0.000001 -0.000001 127.981298 9.469000 -31.964278 -0.000002 0.000006 -2.999990 -5.000209 -7.998750 0.000169 3.649106 52.495949 -5.271454 -53.029015 115.368015 73.543604 -0.000004 -0.000006 0.000005 122.758744 -6.162145 19.658809 -0.000001 0.000007 2.999991 -5.000252 7.998812 -0.000155 -7.760675 -173.730479 0.746463 -179.999991 0.000006 -0.940006 172.502793 -3.600047 -0.737450 0.000001 0.000001 0.011464 67.341328 6.575795 3.025165 25.459383 -7.355613 0.003609 -1.801059 172.047875 -0.694040 -0.000005 -0.000004 -1.008660 -10.204500 0.713355 0.610740 -0.000006 -0.000003 -0.343789 73.817631 -6.645056 -2.491529 25.447895 7.347851 0.013538 
53.462097 -11.707717 85.351196 1.332966 1.030861 -10.271686 -1.566082 0.472146 -0.717225 0.876798 0.956805 -1.426162 2.521749 0.939650 -1.437512 23.437265 -2.279927 -7.315885 3.486261 3.225012 -7.748980 -5.962555 -57.268790 -6.867454 -49.602196 -117.741642 -87.751491 -0.000001 0.000000 -0.000002 127.770614 9.296616 -31.360452 -0.000003 0.000009 -2.999992 -5.000205 -7.998751 0.000167 3.542659 52.650766 -5.118843 -52.919035 115.285233 74.416653 -0.000004 -0.000008 0.000006 122.736204 -6.297467 20.172325 0.000001 0.000006 2.999991 -5.000250 7.998811 -0.000155 -7.702961 -173.687025 0.773268 -179.999991 0.000006 -0.941004 172.508585 -3.600095 -0.737088 0.000001 0.000001 0.010298 67.347332 6.573698 3.030189 25.459380 -7.355612 0.003609 -1.880128 172.053217 -0.672627 -0.000005 -0.000004 -1.007261 -10.145703 0.716789 0.614303 -0.000006 -0.000003 -0.331397 73.689606 -6.631516 -2.539566 25.449618 7.347900 0.011074 
53.439701 -11.699018 85.353485 1.338073 0.997194 -9.975922 -1.570553 0.469688 -0.698663 0.867661 0.951614 -1.389040 2.512625 0.934904 -1.400333 23.495079 -1.993748 -7.476301 3.451718 2.769884 -7.858053 -5.587541 -57.078132 -6.403243 -49.971621 -117.950482 -87.265154 -0.000001 0.000000 -0.000001 127.554739 9.123073 -30.750533 -0.000001 0.000006 -2.999990 -5.000209 -7.998749 0.000169 3.433675 52.800234 -4.964362 -52.813471 115.202164 75.288472 -0.000003 -0.000008 0.000004 122.712326 -6.434110 20.683116 -0.000002 0.000009 2.999993 -5.000251 7.998809 -0.000154 -7.645550 -173.643544 0.800654 -179.999991 0.000005 -0.942998 172.514268 -3.601131 -0.736860 0.000001 0.000002 0.009157 67.353199 6.571524 3.035298 25.459382 -7.355615 0.003610 -1.959659 172.060593 -0.649576 -0.000005 -0.000005 -1.005890 -10.086503 0.719514 0.617785 -0.000006 -0.000002 -0.318988 73.560509 -6.617900 -2.587327 25.451539 7.347965 0.008254 
53.439400 -11.688717 85.317093 1.343398 0.962801 -9.679360 -1.574894 0.467505 -0.680218 0.858791 0.946969 -1.352153 2.503761 0.930701 -1.363396 23.551315 -1.709864 -7.638020 3.421192 2.318157 -7.969063 -5.213577 -56.882796 -5.938735 -50.343467 -118.161248 -86.779753 -0.000000 0.000001 -0.000003 127.333878 8.949700 -30.140023 -0.000003 0.000007 -2.999990 -5.000209 -7.998756 0.000170 3.320670 52.944713 -4.806087 -52.708040 115.120967 76.152573 -0.000003 -0.000006 0.000007 122.690756 -6.572510 21.189521 -0.000001 0.000005 2.999990 -5.000248 7.998805 -0.000156 -7.588376 -173.598096 0.828171 -179.999991 0.000005 -0.943994 172.519937 -3.601177 -0.736503 0.000001 0.000001 0.008056 67.358943 6.569254 3.040700 25.459382 -7.355612 0.003610 -2.039410 172.069964 -0.624753 -0.000005 -0.000005 -1.004530 -10.026701 0.721290 0.621107 -0.000006 -0.000002 -0.306651 73.430599 -6.604411 -2.634323 25.453661 7.348008 0.005303 
53.403599 -11.752015 85.323082 1.348905 0.927812 -9.381986 -1.579011 0.465608 -0.662010 0.850372 0.942898 -1.315744 2.495347 0.927066 -1.326929 23.604680 -1.428614 -7.800756 3.395963 1.870392 -8.081770 -4.840743 -56.682196 -5.473889 -50.716354 -118.373298 -86.299454 0.000000 0.000001 -0.000003 127.108714 8.777371 -29.531245 -0.000003 0.000008 -2.999990 -5.000209 -7.998748 0.000168 3.202138 53.084418 -4.642071 -52.602405 115.042980 77.006626 -0.000003 -0.000008 0.000005 122.675143 -6.710111 21.693014 -0.000001 0.000006 2.999988 -5.000250 7.998812 -0.000156 -7.531304 -173.552621 0.855920 -179.999991 0.000006 -0.946004 172.525592 -3.601224 -0.737159 0.000001 0.000001 0.007013 67.364680 6.566986 3.046104 25.459378 -7.355613 0.003610 -2.119102 172.081343 -0.598033 -0.000005 -0.000005 -1.003210 -9.966149 0.721889 0.624184 -0.000005 -0.000003 -0.294482 73.300415 -6.591317 -2.679665 25.455681 7.348071 0.002418 
